# xmcd
#
# Track frame offsets:
#	150
#	14200
#	28838
#	47184
#	62010
#	75532
#	98318
#	114999
#	132874
#	148404
#	166078
#
# Disc length: 2698 seconds
#
# Revision: 1
# Processed by: cddbd v1.5.1PL0 Copyright (c) Steve Scherf et al.
# Submitted via: audiograbber 1.83.01
#
DISCID=8f0a880b
DTITLE=Bowman, Ronnie - It's Gettin' Better All The TIme
DYEAR=2005
DGENRE=Bluegrass
TTITLE0=On My Way Back Home
TTITLE1=Crazy Train
TTITLE2=The Mountain
TTITLE3=Build A Little Playhouse
TTITLE4=Four Wheel Drive
TTITLE5=Old Flames
TTITLE6=The Epitaph Of Lester Moore
TTITLE7=Till We Meet Again
TTITLE8=Perfect Love
TTITLE9=It's Gettin' Better All The TIme
TTITLE10=Walkin' The Dog
EXTD=
EXTT0=
EXTT1=
EXTT2=
EXTT3=
EXTT4=
EXTT5=
EXTT6=
EXTT7=
EXTT8=
EXTT9=
EXTT10=
PLAYORDER=
